<svg width="31" height="28" viewBox="0 0 31 28" fill="none" xmlns="http://www.w3.org/2000/svg">
<path d="M27.3212 6.92206H2.82639C2.30607 6.92206 1.88428 7.30944 1.88428 7.78731V19.9009C1.88428 20.3788 2.30607 20.7661 2.82639 20.7661H27.3212C27.8416 20.7661 28.2633 20.3788 28.2633 19.9009V7.78731C28.2633 7.30944 27.8416 6.92206 27.3212 6.92206Z" stroke="white" stroke-width="1.5" stroke-linecap="round" stroke-linejoin="round"/>
<path d="M15.0739 17.3051C17.1551 17.3051 18.8423 15.7555 18.8423 13.8441C18.8423 11.9326 17.1551 10.3831 15.0739 10.3831C12.9926 10.3831 11.3054 11.9326 11.3054 13.8441C11.3054 15.7555 12.9926 17.3051 15.0739 17.3051Z" stroke="white" stroke-width="1.5" stroke-linecap="round" stroke-linejoin="round"/>
<path d="M20.7263 6.92206L28.2632 12.9788" stroke="white" stroke-width="1.5" stroke-linecap="round" stroke-linejoin="round"/>
<path d="M20.7263 20.7661L28.2632 14.7094" stroke="white" stroke-width="1.5" stroke-linecap="round" stroke-linejoin="round"/>
<path d="M9.42115 6.92206L1.88428 12.9788" stroke="white" stroke-width="1.5" stroke-linecap="round" stroke-linejoin="round"/>
<path d="M9.42115 20.7661L1.88428 14.7094" stroke="white" stroke-width="1.5" stroke-linecap="round" stroke-linejoin="round"/>
</svg>
